<svg width="157" height="48" viewBox="0 0 157 48" fill="none" xmlns="http://www.w3.org/2000/svg">
<g clip-path="url(#clip0_124_15156)">
<path d="M14.1143 11.3298C15.2666 13.765 16.5035 16.4005 17.7274 18.7388H51.0271C51.3201 16.6847 51.5935 13.8684 51.8018 11.3298H14.1143Z" fill="#E3A645"/>
<path d="M52.1795 4.36011H11.7056C12.1548 5.23859 12.6495 6.24626 13.1704 7.33144H51.9646C52.0558 6.14291 52.1274 5.09648 52.1795 4.36011Z" fill="#249B3E"/>
<path d="M22.7793 26.3351C26.4185 27.2523 49.4777 23.8353 50.4086 22.3044C50.4998 22.1558 50.5909 21.8781 50.6755 21.5099H18.8081C20.2859 24.1324 21.6856 26.0638 22.7793 26.3351Z" fill="#008ECC"/>
<path d="M59.6334 0.988292C56.3132 0.988292 55.1088 4.77352 54.5359 9.33387H51.9579H13.1701H11.6598C8.67159 4.11466 5.34487 0 1.00257 0C0.449204 0 0 0.4457 0 0.994752C0 1.5438 0.449204 1.9895 1.00257 1.9895C4.09492 1.9895 6.8292 5.19338 9.32261 9.32741H8.95153C8.39816 9.32741 7.94896 9.77311 7.94896 10.3222C7.94896 10.8712 8.39816 11.3169 8.95153 11.3169H10.4684C11.4905 13.1708 12.4735 15.128 13.424 17.0206C13.7105 17.5955 13.9969 18.1639 14.2834 18.7194H13.9253C13.372 18.7194 12.9227 19.1651 12.9227 19.7142C12.9227 20.2632 13.372 20.7089 13.9253 20.7089H15.3055C18.1635 26.1801 20.8912 30.3722 24.4588 30.3722C30.65 30.3722 43.5663 28.7057 50.3173 26.4707C45.3566 30.7146 35.6173 32.6136 27.9874 34.0993C20.6113 35.5398 17.0437 36.3214 16.6791 38.4078C16.5685 39.0472 16.7377 39.6415 17.1739 40.1324C18.3197 41.4178 21.2558 41.6245 22.9875 41.6245V42.8325C21.998 43.2265 21.3014 44.1825 21.3014 45.3064C21.3014 46.7792 22.5058 47.9806 23.9966 47.9806C25.4809 47.9806 26.6918 46.7856 26.6918 45.3064C26.6918 44.1825 25.9952 43.2265 25.0057 42.8325V41.5987H47.1794V42.8325C46.1899 43.2265 45.4933 44.1825 45.4933 45.3064C45.4933 46.7792 46.6977 47.9806 48.1885 47.9806C49.6728 47.9806 50.8837 46.7856 50.8837 45.3064C50.8837 44.1825 50.1871 43.2265 49.1976 42.8325V41.5987H54.4513C55.0047 41.5987 55.4539 41.153 55.4539 40.604C55.4539 40.0549 55.0047 39.6092 54.4513 39.6092H48.195H24.0226H24.0161H24.0096H23.9706C21.3014 39.7384 18.8926 39.2604 18.6778 38.7759C19.1335 37.8587 24.4914 36.8123 28.404 36.0501C39.0807 33.9701 53.6571 31.1215 55.3953 21.891C55.4083 21.8393 55.4148 21.7876 55.4278 21.736C55.4344 21.7037 55.4409 21.6714 55.4474 21.6391C55.4474 21.6326 55.4474 21.6326 55.4474 21.6262C55.506 21.3355 55.5581 21.0319 55.6036 20.7025H56.4825C57.0359 20.7025 57.4851 20.2568 57.4851 19.7077C57.4851 19.1587 57.0359 18.713 56.4825 18.713H55.8315C55.9291 17.6665 56.0073 16.4974 56.0919 15.199C56.17 13.9717 56.2546 12.6346 56.3783 11.3105H57.0814C57.6348 11.3105 58.084 10.8648 58.084 10.3157C58.084 9.76665 57.6348 9.32095 57.0814 9.32095H56.5997C57.0489 5.87162 57.8757 2.96488 59.666 2.96488C60.2194 2.96488 60.6686 2.51918 60.6686 1.97013C60.6425 1.43399 60.1933 0.988292 59.6334 0.988292ZM17.5775 20.7283H18.808H50.6754H53.5464C53.5073 20.9802 53.4683 21.2128 53.4227 21.4388C53.4097 21.5228 53.3836 21.6068 53.3706 21.6908C53.2144 22.3948 53.0191 22.9245 52.7717 23.17C50.4475 25.476 33.215 28.4021 24.4653 28.4021C22.1607 28.3956 19.8496 24.9592 17.5775 20.7283ZM54.0542 15.0892C53.9761 16.2648 53.8979 17.5373 53.7808 18.7323H51.0204H17.7273H16.5359C16.0997 17.8797 15.6635 17.0077 15.2274 16.1421C14.4136 14.5208 13.5998 12.893 12.76 11.3234H14.1206H51.8082H54.3341C54.2169 12.5765 54.1388 13.849 54.0542 15.0892Z" fill="#212844"/>
<path d="M76.5694 21.4065C75.3065 20.5539 74.6685 19.3137 74.6685 17.6794C74.6685 17.5438 74.688 17.3113 74.7205 16.9689H79.9938C79.9417 17.5438 80.0589 17.9895 80.3519 18.306C80.6383 18.629 81.081 18.784 81.6799 18.784C82.1747 18.784 82.5653 18.6742 82.8648 18.4546C83.1643 18.235 83.3075 17.9249 83.3075 17.518C83.3075 17.0464 83.0927 16.6589 82.6565 16.3553C82.2203 16.0517 81.5237 15.6964 80.5537 15.2959C79.5837 14.8954 78.7894 14.5079 78.1579 14.1461C77.5264 13.7844 76.9861 13.287 76.5304 12.654C76.0747 12.021 75.8403 11.2329 75.8403 10.2899C75.8403 9.06257 76.1463 8.00323 76.7582 7.11828C77.3702 6.23334 78.223 5.56156 79.3167 5.09648C80.4105 4.6314 81.6669 4.39886 83.0731 4.39886C84.3491 4.39886 85.4754 4.59911 86.4584 4.99313C87.4415 5.38716 88.2097 5.95559 88.763 6.69842C89.3164 7.44125 89.5898 8.31328 89.5898 9.32741C89.5898 9.5987 89.5833 9.79895 89.5638 9.93459H84.1864C84.2059 9.85062 84.2124 9.73435 84.2124 9.57933C84.2124 9.17238 84.0822 8.85587 83.8283 8.62979C83.5744 8.40371 83.2229 8.28744 82.7867 8.28744C82.331 8.28744 81.9599 8.40371 81.6799 8.62979C81.4 8.85587 81.2568 9.17238 81.2568 9.57933C81.2568 10.0186 81.4716 10.3932 81.9078 10.7033C82.344 11.0133 83.0145 11.3815 83.9325 11.8014C84.9155 12.2535 85.7293 12.6799 86.3673 13.0803C87.0053 13.4744 87.5521 14.004 88.0079 14.6629C88.4701 15.3218 88.6979 16.1292 88.6979 17.0916C88.6979 18.151 88.4115 19.107 87.8321 19.9596C87.2527 20.8123 86.4324 21.4776 85.3582 21.9556C84.284 22.4336 83.021 22.679 81.5628 22.679C79.499 22.679 77.8324 22.2527 76.5694 21.4065Z" fill="#212844"/>
<path d="M115.038 9.41136C115.878 10.2188 116.301 11.3427 116.301 12.7703C116.301 13.3258 116.256 13.8167 116.171 14.2366L114.693 22.5046H109.726L111.074 14.8954C111.106 14.6241 111.126 14.4433 111.126 14.3399C111.126 13.7521 110.95 13.2935 110.605 12.977C110.253 12.654 109.765 12.499 109.14 12.499C108.463 12.499 107.877 12.6798 107.395 13.0416C106.914 13.4033 106.581 13.9136 106.412 14.5724L104.986 22.5111H99.9932L101.341 14.9019C101.373 14.7662 101.393 14.566 101.393 14.2947C101.393 13.7198 101.217 13.2806 100.872 12.9705C100.527 12.6604 100.045 12.5054 99.4333 12.5054C98.7172 12.5054 98.1182 12.7057 97.6234 13.0997C97.1287 13.4937 96.7967 14.0557 96.6274 14.7791L95.2537 22.5111H90.2344L92.7799 8.33263H97.7732L97.4412 10.18C97.9685 9.57284 98.6195 9.09485 99.3877 8.73958C100.162 8.38431 101.015 8.2099 101.946 8.2099C103.001 8.2099 103.893 8.43598 104.635 8.8946C105.371 9.34676 105.904 9.99271 106.23 10.8131C106.874 10.0379 107.656 9.41136 108.574 8.9269C109.492 8.4489 110.449 8.20344 111.451 8.20344C113.001 8.19699 114.192 8.60393 115.038 9.41136Z" fill="#212844"/>
<path d="M119.38 11.5624C120.11 10.4643 120.988 9.62454 122.017 9.03674C123.046 8.44893 124.126 8.15179 125.266 8.15179C126.249 8.15179 127.063 8.34558 127.714 8.73314C128.358 9.12071 128.807 9.64392 129.061 10.3028L129.419 8.33266H134.413L131.893 22.5111H126.9L127.258 20.541C126.763 21.1998 126.119 21.7231 125.324 22.1106C124.524 22.4982 123.645 22.692 122.675 22.692C121.177 22.692 119.979 22.201 119.081 21.2128C118.183 20.2245 117.733 18.8809 117.733 17.1821C117.733 16.6266 117.785 16.0388 117.89 15.4122C118.15 13.933 118.651 12.654 119.38 11.5624ZM128.241 14.6952C128.241 13.9847 128.039 13.4421 127.642 13.0545C127.245 12.6669 126.73 12.4732 126.099 12.4732C125.35 12.4732 124.68 12.7315 124.087 13.2418C123.495 13.7586 123.117 14.4756 122.968 15.4057C122.916 15.6576 122.889 15.9031 122.889 16.1356C122.889 16.8462 123.091 17.3888 123.488 17.7763C123.886 18.1639 124.4 18.3577 125.031 18.3577C125.78 18.3577 126.451 18.0993 127.043 17.5761C127.635 17.0529 128.013 16.3294 128.163 15.3993C128.221 15.1474 128.241 14.9148 128.241 14.6952Z" fill="#212844"/>
<path d="M144.191 8.93341C145.076 8.44249 145.975 8.20349 146.893 8.20349L145.975 13.4873H144.575C143.521 13.4873 142.7 13.6811 142.101 14.0687C141.509 14.4562 141.105 15.128 140.903 16.0905L139.758 22.5111H134.738L137.284 8.33268H142.277L141.821 10.91C142.518 10.0767 143.306 9.41786 144.191 8.93341Z" fill="#212844"/>
<path d="M152.876 17.195C152.856 17.279 152.85 17.3823 152.85 17.4986C152.85 17.7699 152.928 17.9637 153.09 18.0929C153.253 18.2221 153.52 18.2802 153.891 18.2802H155.343L154.581 22.4982H152.394C149.288 22.4982 147.733 21.1999 147.733 18.6032C147.733 18.1639 147.785 17.6666 147.882 17.111L148.722 12.4344H146.964L147.7 8.31331H149.458L150.07 4.87689H155.089L154.477 8.31331H157.049L156.313 12.4344H153.741L152.876 17.195Z" fill="#212844"/>
<path d="M79.1607 39.5317C76.7389 39.5317 75.0267 38.1946 74.9941 36.218H76.6738C76.7779 37.2128 77.4875 38.2075 79.1672 38.2075C80.6906 38.2075 81.589 37.3484 81.589 36.218C81.589 32.9948 75.0658 35.0488 75.0658 30.6048C75.0658 28.6282 76.6738 27.2911 79.063 27.2911C81.3611 27.2911 82.865 28.5442 83.0603 30.3593H81.3286C81.2244 29.5519 80.4627 28.6411 78.9914 28.6282C77.6959 28.5959 76.6738 29.2612 76.6738 30.5531C76.6738 33.6407 83.1775 31.7222 83.1775 36.147C83.1775 37.8458 81.7713 39.5317 79.1607 39.5317Z" fill="#E3A645"/>
<path d="M85.4888 26.7098H87.0642V31.3606C87.6892 30.3658 88.8611 29.8361 90.1957 29.8361C92.305 29.8361 93.9846 31.1732 93.9846 33.8668V39.409H92.4286V34.0864C92.4286 32.1615 91.374 31.1862 89.7855 31.1862C88.1775 31.1862 87.0708 32.1809 87.0708 34.2027V39.4026H85.4953V26.7098H85.4888Z" fill="#E3A645"/>
<path d="M100.69 39.564C98.0079 39.564 95.9702 37.6778 95.9702 34.6936C95.9702 31.7222 98.0795 29.8555 100.762 29.8555C103.457 29.8555 105.553 31.7287 105.553 34.6936C105.547 37.6778 103.385 39.564 100.69 39.564ZM100.69 38.1881C102.331 38.1881 103.939 37.0706 103.939 34.6871C103.939 32.3165 102.363 31.2055 100.742 31.2055C99.0821 31.2055 97.5782 32.323 97.5782 34.6871C97.5782 37.0771 99.0495 38.1881 100.69 38.1881Z" fill="#E3A645"/>
<path d="M112.74 29.8491C115.286 29.8491 117.239 31.7352 117.239 34.6678C117.239 37.5875 115.286 39.5576 112.74 39.5576C111.009 39.5576 109.785 38.6339 109.192 37.6714V43.866H107.617V30.0041H109.192V31.7352C109.765 30.7405 111.015 29.8491 112.74 29.8491ZM112.415 31.2055C110.703 31.2055 109.199 32.5103 109.199 34.6872C109.199 36.9028 110.703 38.1882 112.415 38.1882C114.159 38.1882 115.631 36.8834 115.631 34.6678C115.631 32.4522 114.159 31.2055 112.415 31.2055Z" fill="#E3A645"/>
<path d="M124.433 29.8491C126.978 29.8491 128.931 31.7352 128.931 34.6678C128.931 37.5875 126.978 39.5576 124.433 39.5576C122.701 39.5576 121.477 38.6339 120.885 37.6714V43.866H119.309V30.0041H120.885V31.7352C121.457 30.7405 122.701 29.8491 124.433 29.8491ZM124.101 31.2055C122.388 31.2055 120.885 32.5103 120.885 34.6872C120.885 36.9028 122.388 38.1882 124.101 38.1882C125.845 38.1882 127.317 36.8834 127.317 34.6678C127.317 32.4522 125.852 31.2055 124.101 31.2055Z" fill="#E3A645"/>
<path d="M130.741 27.4138C130.741 26.8131 131.21 26.348 131.815 26.348C132.388 26.348 132.851 26.8131 132.851 27.4138C132.851 28.0146 132.382 28.4796 131.815 28.4796C131.21 28.4796 130.741 28.0146 130.741 27.4138ZM131.002 30.0041H132.577V39.409H131.002V30.0041Z" fill="#E3A645"/>
<path d="M142.193 34.0929C142.193 32.168 141.138 31.1926 139.55 31.1926C137.941 31.1926 136.835 32.1873 136.835 34.2091V39.409H135.259V30.0041H136.835V31.3412C137.46 30.3658 138.599 29.8297 139.882 29.8297C142.075 29.8297 143.755 31.1668 143.755 33.8603V39.4025H142.199V34.0929H142.193Z" fill="#E3A645"/>
<path d="M150.232 29.8491C151.964 29.8491 153.208 30.7082 153.761 31.7223V30.0041H155.349V39.6157C155.349 42.2059 153.605 44.0404 150.818 44.0404C148.325 44.0404 146.548 42.7873 146.235 40.7784H147.791C148.136 41.9088 149.262 42.6839 150.818 42.6839C152.498 42.6839 153.761 41.6181 153.761 39.6093V37.6391C153.188 38.6533 151.964 39.564 150.232 39.564C147.687 39.564 145.734 37.5875 145.734 34.6743C145.734 31.7417 147.687 29.8491 150.232 29.8491ZM150.538 31.2055C148.807 31.2055 147.342 32.4587 147.342 34.6743C147.342 36.8898 148.813 38.1946 150.538 38.1946C152.27 38.1946 153.754 36.9092 153.754 34.6936C153.761 32.5103 152.27 31.2055 150.538 31.2055Z" fill="#E3A645"/>
</g>
<defs>
<clipPath id="clip0_124_15156">
<rect width="157" height="48" fill="white"/>
</clipPath>
</defs>
</svg>
