<svg width="18" height="19" viewBox="0 0 18 19" fill="none" xmlns="http://www.w3.org/2000/svg">
<path d="M6 14.75C6.39782 14.75 6.77936 14.592 7.06066 14.3107C7.34196 14.0294 7.5 13.6478 7.5 13.25C7.5 12.8522 7.34196 12.4706 7.06066 12.1893C6.77936 11.908 6.39782 11.75 6 11.75C5.60218 11.75 5.22064 11.908 4.93934 12.1893C4.65804 12.4706 4.5 12.8522 4.5 13.25C4.5 13.6478 4.65804 14.0294 4.93934 14.3107C5.22064 14.592 5.60218 14.75 6 14.75V14.75ZM13.5 14.75C13.8978 14.75 14.2794 14.592 14.5607 14.3107C14.842 14.0294 15 13.6478 15 13.25C15 12.8522 14.842 12.4706 14.5607 12.1893C14.2794 11.908 13.8978 11.75 13.5 11.75C13.1022 11.75 12.7206 11.908 12.4393 12.1893C12.158 12.4706 12 12.8522 12 13.25C12 13.6478 12.158 14.0294 12.4393 14.3107C12.7206 14.592 13.1022 14.75 13.5 14.75V14.75Z" stroke="#008ECC" stroke-miterlimit="1.5" stroke-linecap="round" stroke-linejoin="round"/>
<path d="M7.5375 13.25H11.25V5.45C11.25 5.33065 11.2026 5.21619 11.1182 5.1318C11.0338 5.04741 10.9193 5 10.8 5H0.75M4.2375 13.25H2.7C2.64091 13.25 2.58239 13.2384 2.52779 13.2157C2.4732 13.1931 2.42359 13.16 2.3818 13.1182C2.34002 13.0764 2.30687 13.0268 2.28425 12.9722C2.26164 12.9176 2.25 12.8591 2.25 12.8V9.125" stroke="#008ECC" stroke-linecap="round"/>
<path d="M1.5 7.25H4.5" stroke="#008ECC" stroke-linecap="round" stroke-linejoin="round"/>
<path d="M11.25 7.25H15.4575C15.5445 7.25002 15.6296 7.27525 15.7025 7.32264C15.7755 7.37002 15.8331 7.43753 15.8685 7.517L17.211 10.538C17.2366 10.5954 17.2499 10.6574 17.25 10.7202V12.8C17.25 12.8591 17.2384 12.9176 17.2157 12.9722C17.1931 13.0268 17.16 13.0764 17.1182 13.1182C17.0764 13.16 17.0268 13.1931 16.9722 13.2157C16.9176 13.2384 16.8591 13.25 16.8 13.25H15.375M11.25 13.25H12" stroke="#008ECC" stroke-linecap="round"/>
</svg>
