<svg width="18" height="19" viewBox="0 0 18 19" fill="none" xmlns="http://www.w3.org/2000/svg">
<path fill-rule="evenodd" clip-rule="evenodd" d="M3.1792 8.29346C3.19 5.11302 5.77702 2.54352 8.95746 2.55429C12.1379 2.56513 14.7074 5.15215 14.6966 8.33259V8.39781C14.6575 10.4652 13.5031 12.3761 12.0879 13.8695C11.2785 14.71 10.3747 15.4541 9.39442 16.0869C9.1323 16.3137 8.74349 16.3137 8.48137 16.0869C7.02 15.1357 5.7374 13.9348 4.69224 12.5391C3.76071 11.322 3.23182 9.84478 3.1792 8.31302V8.29346Z" stroke="#008ECC" stroke-linecap="round" stroke-linejoin="round"/>
<path d="M8.93794 10.25C9.95726 10.25 10.7836 9.42363 10.7836 8.40431C10.7836 7.38498 9.95726 6.55865 8.93794 6.55865C7.91861 6.55865 7.09229 7.38498 7.09229 8.40431C7.09229 9.42363 7.91861 10.25 8.93794 10.25Z" stroke="#008ECC" stroke-linecap="round" stroke-linejoin="round"/>
</svg>
