<svg width="18" height="19" viewBox="0 0 18 19" fill="none" xmlns="http://www.w3.org/2000/svg">
<path fill-rule="evenodd" clip-rule="evenodd" d="M3.5956 5.79187C3.5956 4.85512 4.35535 4.09537 5.29135 4.09537H6.0631C6.5101 4.09537 6.93985 3.91837 7.25785 3.60262L7.7971 3.06262C8.45785 2.39887 9.53185 2.39587 10.1956 3.05662L10.2024 3.06262L10.7424 3.60262C11.0596 3.91837 11.4894 4.09537 11.9371 4.09537H12.7081C13.6449 4.09537 14.4046 4.85512 14.4046 5.79187V6.56212C14.4046 7.01062 14.5816 7.43962 14.8974 7.75762L15.4374 8.29762C16.1011 8.95837 16.1049 10.0316 15.4441 10.6961L15.4374 10.7029L14.8974 11.2429C14.5816 11.5594 14.4046 11.9899 14.4046 12.4369V13.2086C14.4046 14.1454 13.6449 14.9044 12.7081 14.9044H11.9371C11.4894 14.9044 11.0596 15.0821 10.7424 15.3979L10.2024 15.9371C9.54235 16.6016 8.46835 16.6046 7.80385 15.9439C7.8016 15.9416 7.79935 15.9394 7.7971 15.9371L7.25785 15.3979C6.93985 15.0821 6.5101 14.9044 6.0631 14.9044H5.29135C4.35535 14.9044 3.5956 14.1454 3.5956 13.2086V12.4369C3.5956 11.9899 3.41785 11.5594 3.1021 11.2429L2.56285 10.7029C1.89835 10.0421 1.89535 8.96812 2.5561 8.30437L2.56285 8.29762L3.1021 7.75762C3.41785 7.43962 3.5956 7.01062 3.5956 6.56212V5.79187Z" stroke="#008ECC" stroke-linecap="round" stroke-linejoin="round"/>
<path d="M7.07227 11.4271L10.9273 7.57214" stroke="#008ECC" stroke-linecap="round" stroke-linejoin="round"/>
<path d="M10.9248 11.9918C10.7748 11.9918 10.6323 11.9318 10.5273 11.8268C10.4748 11.7743 10.4373 11.7068 10.4073 11.6393C10.3773 11.5718 10.3623 11.5051 10.3623 11.4293C10.3623 11.3543 10.3773 11.2793 10.4073 11.2118C10.4373 11.1443 10.4748 11.0843 10.5273 11.0318C10.7373 10.8218 11.1123 10.8218 11.3223 11.0318C11.3748 11.0843 11.4198 11.1443 11.4498 11.2118C11.4723 11.2793 11.4873 11.3543 11.4873 11.4293C11.4873 11.5051 11.4723 11.5718 11.4498 11.6393C11.4198 11.7068 11.3748 11.7743 11.3223 11.8268C11.2173 11.9318 11.0748 11.9918 10.9248 11.9918Z" fill="#008ECC"/>
<path d="M7.06982 8.13711C6.99482 8.13711 6.92732 8.12136 6.85982 8.09136C6.79232 8.06136 6.72482 8.02461 6.67232 7.97211C6.61982 7.91211 6.58232 7.85211 6.55232 7.78461C6.52232 7.71636 6.50732 7.64961 6.50732 7.57461C6.50732 7.49886 6.52232 7.42461 6.55232 7.35711C6.58232 7.28961 6.61982 7.22211 6.67232 7.17711C6.88982 6.96636 7.25732 6.96636 7.46732 7.17711C7.57232 7.28136 7.63232 7.42461 7.63232 7.57461C7.63232 7.64961 7.62482 7.71636 7.59482 7.78461C7.56482 7.85211 7.51982 7.91211 7.46732 7.97211C7.41482 8.02461 7.35482 8.06136 7.28732 8.09136C7.21982 8.12136 7.14482 8.13711 7.06982 8.13711Z" fill="#008ECC"/>
</svg>
