<svg width="18" height="19" viewBox="0 0 18 19" fill="none" xmlns="http://www.w3.org/2000/svg">
<g clip-path="url(#clip0_136_9471)">
<path d="M13.5 5H12C12 3.3425 10.6575 2 9 2C7.3425 2 6 3.3425 6 5H4.5C3.675 5 3 5.675 3 6.5V15.5C3 16.325 3.675 17 4.5 17H13.5C14.325 17 15 16.325 15 15.5V6.5C15 5.675 14.325 5 13.5 5ZM9 3.5C9.825 3.5 10.5 4.175 10.5 5H7.5C7.5 4.175 8.175 3.5 9 3.5ZM13.5 15.5H4.5V6.5H6V8C6 8.4125 6.3375 8.75 6.75 8.75C7.1625 8.75 7.5 8.4125 7.5 8V6.5H10.5V8C10.5 8.4125 10.8375 8.75 11.25 8.75C11.6625 8.75 12 8.4125 12 8V6.5H13.5V15.5Z" fill="#008ECC"/>
</g>
<defs>
<clipPath id="clip0_136_9471">
<rect width="18" height="18" fill="white" transform="translate(0 0.5)"/>
</clipPath>
</defs>
</svg>
